<svg xmlns="http://www.w3.org/2000/svg" viewBox="0 0 64 64" fill="none">
  <!-- 圆形背景 -->
  <circle cx="32" cy="32" r="30" fill="#409EFF"/>
  <!-- 书本 -->
  <path d="M18 22c0-2 2-4 5-4h18c3 0 5 2 5 4v20c0-3-3-5-7-5H25c-4 0-7 2-7 5V22z" fill="#fff" opacity="0.95"/>
  <path d="M32 18v24" stroke="#409EFF" stroke-width="1.5" stroke-linecap="round"/>
  <!-- 书页折角 -->
  <path d="M18 22v20c0-3 3-5 7-5h7V18h-5c-3 0-7 2-7 4z" fill="#d9ecff"/>
  <!-- 学士帽 -->
  <polygon points="32,10 50,20 32,28 14,20" fill="#1a3a5c"/>
  <path d="M50 20v8c0 3-8 6-18 6s-18-3-18-6v-8l18 8 18-8z" fill="#2c5f8a"/>
  <!-- 帽穗 -->
  <line x1="48" y1="20" x2="48" y2="32" stroke="#ffd700" stroke-width="1.5" stroke-linecap="round"/>
  <circle cx="48" cy="33" r="2" fill="#ffd700"/>
</svg>
